<svg width="124" height="45" viewBox="0 0 124 45" fill="none" xmlns="http://www.w3.org/2000/svg">
<path d="M46.6004 14.4397C46.3472 13.0401 45.2275 12.2137 43.8546 12.2137C42.1084 12.2137 40.8421 13.56 40.8421 15.7194C40.8421 17.8787 42.1084 19.225 43.8546 19.225C45.2275 19.225 46.3472 18.3985 46.6004 16.999H45.7741C45.5741 17.9454 44.761 18.4519 43.8546 18.4519C42.6149 18.4519 41.642 17.4922 41.642 15.7194C41.642 13.9466 42.6149 12.9868 43.8546 12.9868C44.761 12.9868 45.5741 13.4934 45.7741 14.4397H46.6004ZM49.9087 19.2383C51.2949 19.2383 52.228 18.1853 52.228 16.5991C52.228 14.9995 51.2949 13.9466 49.9087 13.9466C48.5224 13.9466 47.5894 14.9995 47.5894 16.5991C47.5894 18.1853 48.5224 19.2383 49.9087 19.2383ZM49.9087 18.5319C48.8556 18.5319 48.3758 17.6254 48.3758 16.5991C48.3758 15.5727 48.8556 14.653 49.9087 14.653C50.9617 14.653 51.4415 15.5727 51.4415 16.5991C51.4415 17.6254 50.9617 18.5319 49.9087 18.5319ZM53.4284 19.1317H54.2149V15.9326C54.2149 15.1828 54.7614 14.653 55.3746 14.653C55.971 14.653 56.3875 15.0429 56.3875 15.6261V19.1317H57.1874V15.7993C57.1874 15.1395 57.6005 14.653 58.3204 14.653C58.8802 14.653 59.3601 14.9496 59.3601 15.7061V19.1317H60.1465V15.7061C60.1465 14.5031 59.4999 13.9466 58.5869 13.9466C57.8538 13.9466 57.3173 14.2831 57.0541 14.8129H57.0007C56.7475 14.2664 56.301 13.9466 55.6278 13.9466C54.9613 13.9466 54.4681 14.2664 54.2549 14.8129H54.1882V14.0132H53.4284V19.1317ZM61.5843 21.0511H62.3708V18.3452H62.4375C62.6107 18.6252 62.944 19.2383 63.9303 19.2383C65.21 19.2383 66.103 18.2119 66.103 16.5857C66.103 14.9729 65.21 13.9466 63.917 13.9466C62.9173 13.9466 62.6107 14.5597 62.4375 14.8263H62.3441V14.0132H61.5843V21.0511ZM62.3575 16.5724C62.3575 15.4261 62.864 14.653 63.8237 14.653C64.8234 14.653 65.3166 15.4927 65.3166 16.5724C65.3166 17.6654 64.8101 18.5319 63.8237 18.5319C62.8773 18.5319 62.3575 17.7321 62.3575 16.5724ZM67.3026 19.1317H68.0891V15.8926C68.0891 15.1995 68.6356 14.693 69.3821 14.693C69.592 14.693 69.8086 14.733 69.8619 14.7463V13.9466C69.7719 13.9399 69.5653 13.9332 69.4487 13.9332C68.8356 13.9332 68.3024 14.2798 68.1158 14.7863H68.0625V14.0132H67.3026V19.1317ZM72.3004 19.2516C73.1934 19.2516 73.6599 18.7718 73.8199 18.4385H73.8599V19.1317H74.6463V15.7594C74.6463 14.1332 73.4067 13.9466 72.7536 13.9466C71.9804 13.9466 71.1007 14.2131 70.7008 15.1462L71.4472 15.4128C71.6206 15.0396 72.0305 14.6397 72.7802 14.6397C73.5034 14.6397 73.8599 15.0229 73.8599 15.6794V15.7061C73.8599 16.0859 73.4734 16.0526 72.5403 16.1726C71.5906 16.2958 70.5542 16.5058 70.5542 17.6788C70.5542 18.6785 71.3273 19.2516 72.3004 19.2516ZM72.4203 18.5452C71.7938 18.5452 71.3406 18.2652 71.3406 17.7187C71.3406 17.1189 71.8871 16.9323 72.5003 16.8524C72.8336 16.8124 73.7266 16.7191 73.8599 16.5591V17.2789C73.8599 17.9187 73.3534 18.5452 72.4203 18.5452ZM82.3467 15.1595C82.1 14.4331 81.5467 13.9466 80.5335 13.9466C79.4538 13.9466 78.6545 14.5597 78.6545 15.4261C78.6545 16.1325 79.074 16.6058 80.0139 16.8257L80.867 17.0256C81.3837 17.1456 81.6267 17.3922 81.6267 17.7454C81.6267 18.1853 81.1601 18.5452 80.4274 18.5452C79.7843 18.5452 79.3806 18.2686 79.2407 17.7187L78.4945 17.9054C78.6777 18.7751 79.394 19.2383 80.4408 19.2383C81.6304 19.2383 82.4402 18.5885 82.4402 17.7054C82.4402 16.9923 81.993 16.5424 81.0801 16.3192L80.3204 16.1325C79.714 15.9826 79.4404 15.7793 79.4404 15.3861C79.4404 14.9462 79.907 14.6264 80.5335 14.6264C81.2199 14.6264 81.5033 15.0062 81.6401 15.3594L82.3467 15.1595ZM85.7697 19.2383C86.8098 19.2383 87.5694 18.7185 87.8095 17.9454L87.049 17.7321C86.8494 18.2652 86.3858 18.5319 85.7697 18.5319C84.8463 18.5319 84.21 17.9353 84.1734 16.839H87.8887V16.5058C87.8887 14.5997 86.7559 13.9466 85.6897 13.9466C84.3035 13.9466 83.3838 15.0396 83.3838 16.6124C83.3838 18.1853 84.29 19.2383 85.7697 19.2383ZM84.1734 16.1592C84.2272 15.3628 84.7902 14.653 85.6897 14.653C86.5428 14.653 87.0894 15.2928 87.0894 16.1592H84.1734ZM91.1517 21.1577C92.3779 21.1577 93.3642 20.5979 93.3642 19.2783V14.0132H92.6045V14.8263H92.5245C92.351 14.5597 92.031 13.9466 91.0313 13.9466C89.7385 13.9466 88.8458 14.9729 88.8458 16.5458C88.8458 18.1453 89.7782 19.0517 91.0179 19.0517C92.0176 19.0517 92.3376 18.4652 92.511 18.1853H92.5776V19.225C92.5776 20.078 91.9779 20.4646 91.1517 20.4646C90.2216 20.4646 89.8948 19.9748 89.6855 19.6915L89.0589 20.1314C89.3789 20.6679 90.0085 21.1577 91.1517 21.1577ZM91.1248 18.3452C90.1386 18.3452 89.6316 17.5988 89.6316 16.5324C89.6316 15.4927 90.1251 14.653 91.1248 14.653C92.0849 14.653 92.591 15.4261 92.591 16.5324C92.591 17.6654 92.0714 18.3452 91.1248 18.3452ZM98.0291 17.039C98.0291 17.9987 97.2964 18.4385 96.7102 18.4385C96.0567 18.4385 95.5901 17.9587 95.5901 17.2122V14.0132H94.8035V17.2655C94.8035 18.5719 95.4966 19.1983 96.4567 19.1983C97.2298 19.1983 97.736 18.7851 97.976 18.2652H98.0291V19.1317H98.8157V14.0132H98.0291V17.039ZM100.257 19.1317H101.042V15.8926C101.042 15.1995 101.589 14.693 102.336 14.693C102.545 14.693 102.762 14.733 102.815 14.7463V13.9466C102.725 13.9399 102.519 13.9332 102.402 13.9332C101.789 13.9332 101.256 14.2798 101.069 14.7863H101.016V14.0132H100.257V19.1317ZM105.254 19.2516C106.147 19.2516 106.614 18.7718 106.774 18.4385H106.813V19.1317H107.6V15.7594C107.6 14.1332 106.36 13.9466 105.707 13.9466C104.934 13.9466 104.054 14.2131 103.654 15.1462L104.401 15.4128C104.574 15.0396 104.984 14.6397 105.733 14.6397C106.457 14.6397 106.813 15.0229 106.813 15.6794V15.7061C106.813 16.0859 106.427 16.0526 105.494 16.1726C104.544 16.2958 103.508 16.5058 103.508 17.6788C103.508 18.6785 104.281 19.2516 105.254 19.2516ZM105.374 18.5452C104.747 18.5452 104.294 18.2652 104.294 17.7187C104.294 17.1189 104.841 16.9323 105.454 16.8524C105.787 16.8124 106.68 16.7191 106.813 16.5591V17.2789C106.813 17.9187 106.307 18.5452 105.374 18.5452Z" fill="#646981"/>
<path d="M44.2709 26.4499H45.5551C45.5365 25.3205 44.6082 24.5407 43.1972 24.5407C41.8079 24.5407 40.7898 25.3082 40.796 26.4593C40.7929 27.3937 41.452 27.929 42.5226 28.1859L43.2127 28.3591C43.9027 28.5262 44.2864 28.7243 44.2895 29.1513C44.2864 29.6154 43.847 29.9311 43.1662 29.9311C42.4701 29.9311 41.9687 29.6093 41.9254 28.9749H40.6289C40.6629 30.3457 41.6438 31.0543 43.1817 31.0543C44.7289 31.0543 45.6386 30.3147 45.6418 29.1544C45.6386 28.0992 44.8434 27.5392 43.7418 27.2916L43.1725 27.1554C42.6217 27.0286 42.1606 26.8244 42.1699 26.3695C42.1699 25.9611 42.5319 25.6608 43.1879 25.6608C43.8284 25.6608 44.2214 25.9518 44.2709 26.4499ZM47.8828 24.6274H46.543V30.9646H47.8828V24.6274ZM48.7438 25.732H50.6839V30.9646H52.0083V25.732H53.9484V24.6274H48.7438V25.732ZM54.8056 30.9646H59.0881V29.8599H56.1454V28.3468H58.856V27.2421H56.1454V25.732H59.0757V24.6274H54.8056V30.9646ZM62.1577 30.9646H63.4975V28.9099H64.6239C66.0813 28.9099 66.9291 28.0404 66.9291 26.7749C66.9291 25.5154 66.0968 24.6274 64.6579 24.6274H62.1577V30.9646ZM63.4975 27.8362V25.7228H64.401C65.1746 25.7228 65.5491 26.1436 65.5491 26.7749C65.5491 27.403 65.1746 27.8362 64.4072 27.8362H63.4975ZM67.7994 30.9646H69.1392V28.7181H70.117L71.3176 30.9646H72.7967L71.4507 28.5015C72.1716 28.1921 72.5708 27.5639 72.5708 26.6975C72.5708 25.4381 71.7385 24.6274 70.2996 24.6274H67.7994V30.9646ZM69.1392 27.6412V25.7228H70.0428C70.8164 25.7228 71.1908 26.0663 71.1908 26.6975C71.1908 27.3256 70.8164 27.6412 70.049 27.6412H69.1392ZM79.341 27.796C79.341 25.7228 78.0542 24.5407 76.3741 24.5407C74.6842 24.5407 73.4063 25.7228 73.4063 27.796C73.4063 29.8599 74.6842 31.0512 76.3741 31.0512C78.0542 31.0512 79.341 29.8692 79.341 27.796ZM77.9831 27.796C77.9831 29.1389 77.3453 29.8661 76.3741 29.8661C75.399 29.8661 74.7647 29.1389 74.7647 27.796C74.7647 26.453 75.399 25.7259 76.3741 25.7259C77.3453 25.7259 77.9831 26.453 77.9831 27.796ZM79.8113 25.732H81.7516V30.9646H83.0757V25.732H85.016V24.6274H79.8113V25.732ZM85.8737 30.9646H90.1558V29.8599H87.2128V28.3468H89.924V27.2421H87.2128V25.732H90.1438V24.6274H85.8737V30.9646ZM95.4107 26.6758H96.7722C96.5988 25.4226 95.4944 24.5407 94.0618 24.5407C92.3877 24.5407 91.0971 25.7475 91.0971 27.8021C91.0971 29.8073 92.3039 31.0512 94.0895 31.0512C95.6896 31.0512 96.8313 30.0393 96.8313 28.3715V27.5732H94.1792V28.5819H95.5408C95.5221 29.3679 94.9867 29.8661 94.0954 29.8661C93.0898 29.8661 92.4557 29.1141 92.4557 27.7898C92.4557 26.4716 93.1145 25.7259 94.0835 25.7259C94.7736 25.7259 95.2409 26.0817 95.4107 26.6758ZM99.1776 24.6274H97.8377V30.9646H99.1776V24.6274ZM102.526 30.9646C104.457 30.9646 105.627 29.7702 105.627 27.7898C105.627 25.8156 104.457 24.6274 102.545 24.6274H100.28V30.9646H102.526ZM101.62 29.8165V25.7754H102.473C103.662 25.7754 104.29 26.3819 104.29 27.7898C104.29 29.2039 103.662 29.8165 102.471 29.8165H101.62ZM112.443 27.796C112.443 25.7228 111.156 24.5407 109.475 24.5407C107.786 24.5407 106.508 25.7228 106.508 27.796C106.508 29.8599 107.786 31.0512 109.475 31.0512C111.156 31.0512 112.443 29.8692 112.443 27.796ZM111.084 27.796C111.084 29.1389 110.447 29.8661 109.475 29.8661C108.501 29.8661 107.866 29.1389 107.866 27.796C107.866 26.453 108.501 25.7259 109.475 25.7259C110.447 25.7259 111.084 26.453 111.084 27.796Z" fill="#6BB70B"/>
<path d="M21.0006 35.5882C21.363 35.8045 21.7954 35.8158 22.1685 35.6188C24.4314 34.4239 32.415 29.728 32.5951 22.8622L32.8156 14.4557C32.8304 13.8971 32.497 13.3879 31.979 13.1781L22.7421 9.43497C22.4417 9.31325 22.1074 9.3045 21.801 9.4103L12.3805 12.6638C11.8523 12.8462 11.4926 13.3371 11.478 13.8957L11.2574 22.3023C11.0772 29.1681 18.8035 34.2762 21.0006 35.5882Z" stroke="#6BB70B" stroke-width="1.79289" stroke-linecap="round" stroke-linejoin="round"/>
<path fill-rule="evenodd" clip-rule="evenodd" d="M20.1883 16.0458C20.6277 15.6119 21.2253 15.3666 21.8501 15.3666C22.475 15.3666 23.0726 15.6119 23.512 16.0458C23.951 16.4794 24.1961 17.0657 24.1961 17.6753V20.0586C24.1961 20.0586 24.1961 20.0586 24.1961 20.0586H19.5042C19.5042 20.0586 19.5042 20.0586 19.5042 20.0586V17.6753C19.5042 17.0657 19.7493 16.4794 20.1883 16.0458ZM18.1636 20.0586C18.1636 20.0586 18.1636 20.0586 18.1636 20.0586V17.6753C18.1636 16.7048 18.5541 15.7757 19.2463 15.092C19.9383 14.4085 20.8751 14.0261 21.8501 14.0261C22.8252 14.0261 23.762 14.4085 24.4539 15.092C25.1462 15.7757 25.5367 16.7048 25.5367 17.6753V20.0586C25.5367 20.0586 25.5367 20.0586 25.5367 20.0586H25.7601C26.3771 20.0586 26.8772 20.6042 26.8772 21.2773V25.5427C26.8772 26.2158 26.3771 26.7614 25.7601 26.7614H17.9402C17.3232 26.7614 16.8231 26.2158 16.8231 25.5427V21.2773C16.8231 20.6042 17.3232 20.0586 17.9402 20.0586H18.1636Z" fill="#6BB70B"/>
<path d="M120.82 1H3.43005C2.08797 1 1 2.08797 1 3.43005V41.5631C1 42.9052 2.08797 43.9931 3.43005 43.9931H120.82C122.162 43.9931 123.25 42.9052 123.25 41.5631V3.43005C123.25 2.08797 122.162 1 120.82 1Z" stroke="#6BB70B" stroke-opacity="0.5" stroke-width="1.5"/>
</svg>
