<svg width="16" height="17" viewBox="0 0 16 17" fill="none" xmlns="http://www.w3.org/2000/svg">
<path d="M13.309 7.77734H2.92144C2.10188 7.77734 1.4375 8.42404 1.4375 9.22179V14.2774C1.4375 15.0751 2.10188 15.7218 2.92144 15.7218H13.309C14.1286 15.7218 14.793 15.0751 14.793 14.2774V9.22179C14.793 8.42404 14.1286 7.77734 13.309 7.77734Z" stroke="#FF5448" stroke-width="1.5" stroke-linecap="round" stroke-linejoin="round"/>
<path d="M4.4054 7.77734V4.88845C4.4054 3.93073 4.79625 3.01223 5.49199 2.33501C6.18772 1.6578 7.13133 1.27734 8.11525 1.27734C9.09916 1.27734 10.0428 1.6578 10.7385 2.33501C11.4342 3.01223 11.8251 3.93073 11.8251 4.88845V7.77734" stroke="#FF5448" stroke-width="1.5" stroke-linecap="round" stroke-linejoin="round"/>
</svg>
