<svg width="22" height="22" viewBox="0 0 22 22" fill="none" xmlns="http://www.w3.org/2000/svg">
<ellipse cx="10.8281" cy="11" rx="10.2734" ry="10" fill="white" stroke="#EFEDED"/>
<path d="M15.9648 13.8283C15.9648 14.0694 15.8664 14.3006 15.6913 14.4711C15.5161 14.6416 15.2786 14.7374 15.0309 14.7374H6.62536C6.37766 14.7374 6.1401 14.6416 5.96495 14.4711C5.7898 14.3006 5.69141 14.0694 5.69141 13.8283V8.82827C5.69141 8.58716 5.7898 8.35593 5.96495 8.18544C6.1401 8.01496 6.37766 7.91918 6.62536 7.91918H8.49325L9.4272 6.55554H12.229L13.163 7.91918H15.0309C15.2786 7.91918 15.5161 8.01496 15.6913 8.18544C15.8664 8.35593 15.9648 8.58716 15.9648 8.82827V13.8283Z" stroke="#FF5448" stroke-linecap="round" stroke-linejoin="round"/>
<path d="M10.8282 12.9186C11.8598 12.9186 12.6961 12.1046 12.6961 11.1004C12.6961 10.0963 11.8598 9.28223 10.8282 9.28223C9.79662 9.28223 8.96033 10.0963 8.96033 11.1004C8.96033 12.1046 9.79662 12.9186 10.8282 12.9186Z" stroke="#FF5448" stroke-linecap="round" stroke-linejoin="round"/>
</svg>
