<svg width="1440" height="976" viewBox="0 0 1440 976" fill="none" xmlns="http://www.w3.org/2000/svg">
<path d="M-99.8138 98.177L1472.85 446.353" stroke="#FF7C76" stroke-width="0.5"/>
<path d="M-99.8138 -312.823L1472.85 35.3528" stroke="#FF7C76" stroke-width="0.5"/>
<path d="M-95.1146 44.3818L1477.55 392.558" stroke="#FF7C76" stroke-width="0.5"/>
<path d="M-101.032 112.124L1471.72 459.304" stroke="#FF7C76" stroke-width="0.5"/>
<path d="M-101.032 -298.876L1471.72 48.3033" stroke="#FF7C76" stroke-width="0.5"/>
<path d="M-96.3333 58.3286L1476.42 405.508" stroke="#FF7C76" stroke-width="0.5"/>
<path d="M-102.163 125.074L1470.5 473.25" stroke="#FF7C76" stroke-width="0.5"/>
<path d="M-102.163 -285.925L1470.5 62.2506" stroke="#FF7C76" stroke-width="0.5"/>
<path d="M-97.4642 71.2795L1475.2 419.455" stroke="#FF7C76" stroke-width="0.5"/>
<path d="M-97.4642 -339.72L1475.2 8.45569" stroke="#FF7C76" stroke-width="0.5"/>
<path d="M-103.381 139.021L1469.37 486.201" stroke="#FF7C76" stroke-width="0.5"/>
<path d="M-103.381 -271.979L1469.37 75.2008" stroke="#FF7C76" stroke-width="0.5"/>
<path d="M-98.6825 85.2263L1474.07 432.406" stroke="#FF7C76" stroke-width="0.5"/>
<path d="M-98.6825 -325.773L1474.07 21.4062" stroke="#FF7C76" stroke-width="0.5"/>
<path d="M-104.513 151.972L1468.15 500.148" stroke="#FF7C76" stroke-width="0.5"/>
<path d="M-104.513 -259.028L1468.15 89.1481" stroke="#FF7C76" stroke-width="0.5"/>
<path d="M-105.731 165.919L1467.02 513.099" stroke="#FF7C76" stroke-width="0.5"/>
<path d="M-105.731 -245.081L1467.02 102.099" stroke="#FF7C76" stroke-width="0.5"/>
<path d="M-106.863 178.869L1465.8 527.045" stroke="#FF7C76" stroke-width="0.5"/>
<path d="M-106.863 -232.13L1465.8 116.046" stroke="#FF7C76" stroke-width="0.5"/>
<path d="M-108.08 192.816L1464.67 539.996" stroke="#FF7C76" stroke-width="0.5"/>
<path d="M-108.08 -218.184L1464.67 128.996" stroke="#FF7C76" stroke-width="0.5"/>
<path d="M-108.08 -94.5653L1464.67 252.614" stroke="#FF7C76" stroke-width="0.5"/>
<path d="M-109.212 205.767L1463.46 553.943" stroke="#FF7C76" stroke-width="0.5"/>
<path d="M-109.212 -205.233L1463.46 142.943" stroke="#FF7C76" stroke-width="0.5"/>
<path d="M-109.212 -81.6146L1463.46 266.561" stroke="#FF7C76" stroke-width="0.5"/>
<path d="M-110.43 219.714L1462.32 566.894" stroke="#FF7C76" stroke-width="0.5"/>
<path d="M-110.43 -191.286L1462.32 155.894" stroke="#FF7C76" stroke-width="0.5"/>
<path d="M-110.43 -67.6679L1462.32 279.512" stroke="#FF7C76" stroke-width="0.5"/>
<path d="M-111.561 232.665L1461.11 580.841" stroke="#FF7C76" stroke-width="0.5"/>
<path d="M-111.561 -178.335L1461.11 169.841" stroke="#FF7C76" stroke-width="0.5"/>
<path d="M-111.561 -54.7175L1461.11 293.458" stroke="#FF7C76" stroke-width="0.5"/>
<path d="M-112.78 246.612L1459.97 593.792" stroke="#FF7C76" stroke-width="0.5"/>
<path d="M-112.78 -164.388L1459.97 182.792" stroke="#FF7C76" stroke-width="0.5"/>
<path d="M-112.78 -40.7703L1459.97 306.409" stroke="#FF7C76" stroke-width="0.5"/>
<path d="M-113.911 259.563L1458.76 607.739" stroke="#FF7C76" stroke-width="0.5"/>
<path d="M-113.911 -151.437L1458.76 196.739" stroke="#FF7C76" stroke-width="0.5"/>
<path d="M-113.911 -27.8196L1458.76 320.356" stroke="#FF7C76" stroke-width="0.5"/>
<path d="M-115.129 273.51L1457.63 620.689" stroke="#FF7C76" stroke-width="0.5"/>
<path d="M-115.129 -137.49L1457.63 209.689" stroke="#FF7C76" stroke-width="0.5"/>
<path d="M-115.129 -13.8728L1457.63 333.307" stroke="#FF7C76" stroke-width="0.5"/>
<path d="M-116.261 286.46L1456.41 634.636" stroke="#FF7C76" stroke-width="0.5"/>
<path d="M-116.261 -124.54L1456.41 223.635" stroke="#FF7C76" stroke-width="0.5"/>
<path d="M-116.261 -0.922124L1456.41 347.254" stroke="#FF7C76" stroke-width="0.5"/>
<path d="M-117.479 300.407L1455.28 647.587" stroke="#FF7C76" stroke-width="0.5"/>
<path d="M-117.479 -110.593L1455.28 236.587" stroke="#FF7C76" stroke-width="0.5"/>
<path d="M-117.479 13.0247L1455.28 360.204" stroke="#FF7C76" stroke-width="0.5"/>
<path d="M-118.611 313.358L1454.06 661.534" stroke="#FF7C76" stroke-width="0.5"/>
<path d="M-118.611 25.9753L1454.06 374.151" stroke="#FF7C76" stroke-width="0.5"/>
<path d="M-119.828 327.304L1452.93 674.484" stroke="#FF7C76" stroke-opacity="0.2" stroke-width="0.5"/>
<path d="M-116.895 560.18L1455.77 908.356" stroke="#FF7C76" stroke-opacity="0.2" stroke-width="0.5"/>
<path d="M-98.099 345L1474.57 693.176" stroke="#FF7C76" stroke-opacity="0.2" stroke-width="0.5"/>
<path d="M-118.114 574.127L1454.64 921.307" stroke="#FF7C76" stroke-opacity="0.2" stroke-width="0.5"/>
<path d="M-99.3167 358.947L1473.44 706.126" stroke="#FF7C76" stroke-opacity="0.2" stroke-width="0.5"/>
<path d="M-119.244 587.078L1453.42 935.254" stroke="#FF7C76" stroke-opacity="0.2" stroke-width="0.5"/>
<path d="M-100.449 371.897L1472.22 720.073" stroke="#FF7C76" stroke-opacity="0.2" stroke-width="0.5"/>
<path d="M-120.463 601.025L1452.29 948.204" stroke="#FF7C76" stroke-opacity="0.2" stroke-width="0.5"/>
<path d="M-101.667 385.844L1471.09 733.024" stroke="#FF7C76" stroke-opacity="0.2" stroke-width="0.5"/>
<path d="M-121.594 613.975L1451.07 962.151" stroke="#FF7C76" stroke-opacity="0.2" stroke-width="0.5"/>
<path d="M-102.798 398.795L1469.87 746.971" stroke="#FF7C76" stroke-opacity="0.2" stroke-width="0.5"/>
<path d="M-122.813 627.922L1449.94 975.102" stroke="#FF7C76" stroke-opacity="0.2" stroke-width="0.5"/>
<path d="M-104.016 412.741L1468.74 759.921" stroke="#FF7C76" stroke-opacity="0.2" stroke-width="0.5"/>
<path d="M-105.148 425.692L1467.52 773.868" stroke="#FF7C76" stroke-opacity="0.2" stroke-width="0.5"/>
<path d="M-106.366 439.639L1466.39 786.819" stroke="#FF7C76" stroke-opacity="0.2" stroke-width="0.5"/>
<path d="M-107.496 452.59L1465.17 800.766" stroke="#FF7C76" stroke-opacity="0.2" stroke-width="0.5"/>
<path d="M-108.715 466.537L1464.04 813.716" stroke="#FF7C76" stroke-opacity="0.2" stroke-width="0.5"/>
<path d="M-109.847 479.487L1462.82 827.663" stroke="#FF7C76" stroke-opacity="0.2" stroke-width="0.5"/>
<path d="M-111.065 493.434L1461.69 840.614" stroke="#FF7C76" stroke-opacity="0.2" stroke-width="0.5"/>
<path d="M-112.196 506.385L1460.47 854.561" stroke="#FF7C76" stroke-opacity="0.2" stroke-width="0.5"/>
<path d="M-113.414 520.332L1459.34 867.511" stroke="#FF7C76" stroke-opacity="0.2" stroke-width="0.5"/>
<path d="M-114.546 533.283L1458.12 881.459" stroke="#FF7C76" stroke-opacity="0.2" stroke-width="0.5"/>
<path d="M-115.764 547.23L1456.99 894.409" stroke="#FF7C76" stroke-opacity="0.2" stroke-width="0.5"/>
</svg>
