<svg width="15" height="17" viewBox="0 0 15 17" fill="none" xmlns="http://www.w3.org/2000/svg">
<path d="M14.0732 7.13636C14.0732 11.9091 7.769 16 7.769 16C7.769 16 1.46484 11.9091 1.46484 7.13636C1.46484 5.5089 2.12903 3.94809 3.31129 2.7973C4.49355 1.64651 6.09703 1 7.769 1C9.44096 1 11.0445 1.64651 12.2267 2.7973C13.409 3.94809 14.0732 5.5089 14.0732 7.13636Z" stroke="#FF5448" stroke-width="1.5" stroke-linecap="round" stroke-linejoin="round"/>
<path d="M7.77057 9.18188C8.93114 9.18188 9.87196 8.2661 9.87196 7.13643C9.87196 6.00675 8.93114 5.09097 7.77057 5.09097C6.61001 5.09097 5.66919 6.00675 5.66919 7.13643C5.66919 8.2661 6.61001 9.18188 7.77057 9.18188Z" stroke="#FF5448" stroke-width="1.5" stroke-linecap="round" stroke-linejoin="round"/>
</svg>
