<svg width="15" height="17" viewBox="0 0 15 17" fill="none" xmlns="http://www.w3.org/2000/svg">
<path d="M13.1014 11.7668C12.4365 11.0386 11.1897 10.4723 11.5222 9.17776C11.8546 7.88326 13.7664 2.94798 13.4339 2.13892C13.1014 1.32986 12.3534 0.601702 10.7741 1.24895C9.19486 1.81529 7.86496 2.78617 7.86496 2.78617L7.69873 3.51432L7.53249 2.78617C7.53249 2.78617 6.11948 1.8962 4.62334 1.24895C3.04409 0.601702 2.29603 1.41076 1.96355 2.13892C1.63108 2.94798 3.5428 7.88326 3.87528 9.17776C4.20775 10.4723 2.87786 11.0386 2.21291 11.7668C1.54796 12.4949 1.46484 13.5467 1.46484 13.5467C3.62592 14.7603 7.61561 15.9739 7.61561 15.9739C7.61561 15.9739 11.6053 14.7603 13.7664 13.5467C13.8495 13.5467 13.7664 12.4949 13.1014 11.7668Z" stroke="#FF5448" stroke-width="1.5"/>
</svg>
