<svg width="17" height="18" viewBox="0 0 17 18" fill="none" xmlns="http://www.w3.org/2000/svg">
<path d="M12.2246 6.75386L5.0332 2.71719" stroke="#FF5448" stroke-width="1.5" stroke-linecap="round" stroke-linejoin="round"/>
<path d="M15.8203 11.8873V5.66507C15.82 5.39229 15.746 5.12437 15.6058 4.8882C15.4656 4.65203 15.264 4.45591 15.0213 4.31952L9.42795 1.2084C9.18501 1.07188 8.90943 1 8.62891 1C8.34838 1 8.0728 1.07188 7.82986 1.2084L2.23655 4.31952C1.99385 4.45591 1.79226 4.65203 1.65201 4.8882C1.51177 5.12437 1.43779 5.39229 1.4375 5.66507V11.8873C1.43779 12.1601 1.51177 12.428 1.65201 12.6642C1.79226 12.9003 1.99385 13.0965 2.23655 13.2329L7.82986 16.344C8.0728 16.4805 8.34838 16.5524 8.62891 16.5524C8.90943 16.5524 9.18501 16.4805 9.42795 16.344L15.0213 13.2329C15.264 13.0965 15.4656 12.9003 15.6058 12.6642C15.746 12.428 15.82 12.1601 15.8203 11.8873Z" stroke="#FF5448" stroke-width="1.5" stroke-linecap="round" stroke-linejoin="round"/>
<path d="M1.65283 4.85638L8.6285 8.78416L15.6042 4.85638" stroke="#FF5448" stroke-width="1.5" stroke-linecap="round" stroke-linejoin="round"/>
<path d="M8.62891 16.6161V8.77612" stroke="#FF5448" stroke-width="1.5" stroke-linecap="round" stroke-linejoin="round"/>
</svg>
