<svg width="16" height="16" viewBox="0 0 16 16" fill="none" xmlns="http://www.w3.org/2000/svg">
<path d="M13.6002 5.90024H7.30024C6.52704 5.90024 5.90024 6.52704 5.90024 7.30024V13.6002C5.90024 14.3734 6.52704 15.0002 7.30024 15.0002H13.6002C14.3734 15.0002 15.0002 14.3734 15.0002 13.6002V7.30024C15.0002 6.52704 14.3734 5.90024 13.6002 5.90024Z" stroke="#4C6EF5" stroke-width="1.5" stroke-linecap="round" stroke-linejoin="round"/>
<path d="M3.1 10.1H2.4C2.0287 10.1 1.6726 9.9525 1.41005 9.68995C1.1475 9.4274 1 9.0713 1 8.7V2.4C1 2.0287 1.1475 1.6726 1.41005 1.41005C1.6726 1.1475 2.0287 1 2.4 1H8.7C9.0713 1 9.4274 1.1475 9.68995 1.41005C9.9525 1.6726 10.1 2.0287 10.1 2.4V3.1" stroke="#4C6EF5" stroke-width="1.5" stroke-linecap="round" stroke-linejoin="round"/>
</svg>
