<svg width="21" height="17" viewBox="0 0 21 17" fill="none" xmlns="http://www.w3.org/2000/svg">
<path d="M13.576 1H1V11.8992H13.576V1Z" stroke="#FF5448" stroke-width="1.5" stroke-linecap="round" stroke-linejoin="round"/>
<path d="M13.5752 5.19174H16.9288L19.444 7.70693V11.8989H13.5752V5.19174Z" stroke="#FF5448" stroke-width="1.5" stroke-linecap="round" stroke-linejoin="round"/>
<path d="M4.77214 16.0911C5.92973 16.0911 6.86813 15.1527 6.86813 13.9951C6.86813 12.8375 5.92973 11.8991 4.77214 11.8991C3.61456 11.8991 2.67615 12.8375 2.67615 13.9951C2.67615 15.1527 3.61456 16.0911 4.77214 16.0911Z" stroke="#FF5448" stroke-width="1.5" stroke-linecap="round" stroke-linejoin="round"/>
<path d="M15.6712 16.0911C16.8288 16.0911 17.7672 15.1527 17.7672 13.9951C17.7672 12.8375 16.8288 11.8991 15.6712 11.8991C14.5136 11.8991 13.5752 12.8375 13.5752 13.9951C13.5752 15.1527 14.5136 16.0911 15.6712 16.0911Z" stroke="#FF5448" stroke-width="1.5" stroke-linecap="round" stroke-linejoin="round"/>
</svg>
