<svg width="18" height="18" viewBox="0 0 18 18" fill="none" xmlns="http://www.w3.org/2000/svg">
<path d="M4.99994 16.9998H2.59998C2.17564 16.9998 1.76868 16.8312 1.46862 16.5311C1.16857 16.2311 1 15.8241 1 15.3998V9.79987C1 9.37553 1.16857 8.96857 1.46862 8.66852C1.76868 8.36847 2.17564 8.1999 2.59998 8.1999H4.99994M10.5999 6.59992V3.39997C10.5999 2.76346 10.347 2.15301 9.89693 1.70293C9.44685 1.25285 8.83641 1 8.1999 1L4.99994 8.1999V16.9998H14.0238C14.4097 17.0041 14.7841 16.8689 15.0781 16.619C15.3721 16.3691 15.5659 16.0213 15.6238 15.6398L16.7278 8.43989C16.7626 8.21058 16.7471 7.97644 16.6824 7.7537C16.6178 7.53096 16.5055 7.32494 16.3533 7.14992C16.2011 6.9749 16.0126 6.83506 15.801 6.74009C15.5894 6.64512 15.3597 6.59729 15.1278 6.59992H10.5999Z" stroke="white" stroke-width="1.5" stroke-linecap="round" stroke-linejoin="round"/>
</svg>
