<svg width="25" height="11" viewBox="0 0 25 11" fill="none" xmlns="http://www.w3.org/2000/svg">
<rect x="0.391602" y="0.220215" width="23.8381" height="10.391" rx="1" fill="#016FD0"/>
<path d="M6.7373 8.742V5.76959H9.72634L10.047 6.20978L10.3783 5.76959H21.2278V8.53701C21.2278 8.53701 20.9441 8.73903 20.6159 8.742H14.6083L14.2468 8.27345V8.742H13.0619V7.94216C13.0619 7.94216 12.9001 8.05381 12.5502 8.05381H12.1469V8.742H10.353L10.0327 8.29237L9.70759 8.742H6.7373Z" fill="white"/>
<path d="M3.39404 3.70891L4.06546 2.05432H5.22661L5.60765 2.98116V2.05432H7.05107L7.2779 2.72421L7.4978 2.05432H13.9772V2.3911C13.9772 2.3911 14.3179 2.05432 14.8776 2.05432L16.98 2.06209L17.3545 2.97679V2.05432H18.5624L18.8948 2.57975V2.05432H20.1138V5.02673H18.8948L18.5762 4.4996V5.02673H16.8015L16.623 4.55817H16.1459L15.9704 5.02673H14.7668C14.2852 5.02673 13.9772 4.69683 13.9772 4.69683V5.02673H12.1626L11.8024 4.55817V5.02673H5.05459L4.87625 4.55817H4.40066L4.22358 5.02673H3.39404V3.70891Z" fill="white"/>
<path d="M4.33686 2.42682L3.39355 4.65613H4.0077L4.18175 4.20972H5.19359L5.36674 4.65613H5.99441L5.05201 2.42682H4.33686ZM4.68587 2.94565L4.99429 3.72572H4.37654L4.68587 2.94565Z" fill="#016FD0"/>
<path d="M5.99414 4.65515V2.42584L6.82208 2.42914L7.30365 3.86645L7.77367 2.42584H8.595V4.65515H8.07483V3.0125L7.52343 4.65515H7.06724L6.51431 3.0125V4.65515H5.99414Z" fill="#016FD0"/>
<path d="M8.96655 4.65515V2.42584H10.8243V2.9245H9.54186V3.30583H10.7943V3.77516H9.54186V4.17116H10.8243V4.65515H8.96655Z" fill="#016FD0"/>
<path d="M11.1967 2.42584V4.65515H11.6802V3.86316H11.8838L12.4635 4.65515H13.0544L12.4182 3.83383C12.6793 3.80843 12.9486 3.55012 12.9486 3.14909C12.9486 2.67996 12.6292 2.42584 12.2727 2.42584H11.1967ZM11.6802 2.9245H12.2329C12.3655 2.9245 12.4619 3.04405 12.4619 3.15917C12.4619 3.30727 12.337 3.39383 12.2401 3.39383H11.6802V2.9245Z" fill="#016FD0"/>
<path d="M13.5742 4.65515H13.0541V2.42584H13.5742V4.65515Z" fill="#016FD0"/>
<path d="M14.9593 4.65515H14.8269C14.1862 4.65515 13.7972 4.18692 13.7972 3.54966C13.7972 2.89666 14.1819 2.42584 14.9909 2.42584H15.655V2.95384H14.9667C14.6382 2.95384 14.406 3.1916 14.406 3.55516C14.406 3.98689 14.6716 4.16822 15.0542 4.16822H15.2123L14.9593 4.65515Z" fill="#016FD0"/>
<path d="M16.092 2.42584L15.2834 4.65515H15.8099L15.959 4.20874H16.8263L16.9748 4.65515H17.5128L16.705 2.42584H16.092ZM16.3911 2.94467L16.6555 3.72475H16.126L16.3911 2.94467Z" fill="#016FD0"/>
<path d="M17.5121 4.65515V2.42584H18.2398L19.169 3.82649V2.42584H19.7414V4.65515H19.0372L18.0845 3.21783V4.65515H17.5121Z" fill="#016FD0"/>
<path d="M7.10913 8.37066V6.14136H8.96689V6.64002H7.68444V7.02135H8.93692V7.49068H7.68444V7.88667H8.96689V8.37066H7.10913Z" fill="#016FD0"/>
<path d="M15.6547 8.37066V6.14136H17.1409V6.64002H16.1149V7.02135H17.1121V7.49068H16.1149V7.88667H17.1409V8.37066H15.6547Z" fill="#016FD0"/>
<path d="M8.98567 8.37066L9.78862 7.26976L8.96655 6.14136H9.60326L10.0928 6.83893L10.5841 6.14136H11.1959L10.3846 7.25601L11.189 8.37066H10.5524L10.0771 7.68409L9.61323 8.37066H8.98567Z" fill="#016FD0"/>
<path d="M11.1967 6.14136V8.37066H11.8244V7.66667H12.4682C13.013 7.66667 13.426 7.40332 13.426 6.89118C13.426 6.46693 13.1021 6.14136 12.5477 6.14136H11.1967ZM11.8244 6.64552H12.5024C12.6784 6.64552 12.8043 6.74381 12.8043 6.90218C12.8043 7.05097 12.6791 7.15884 12.5004 7.15884H11.8244V6.64552Z" fill="#016FD0"/>
<path d="M13.4253 6.14136V8.37066H14.0055V7.57867H14.2498L14.9455 8.37066H15.6546L14.8911 7.54934C15.2045 7.52394 15.5277 7.26564 15.5277 6.8646C15.5277 6.39548 15.1443 6.14136 14.7165 6.14136H13.4253ZM14.0055 6.64002H14.6688C14.8279 6.64002 14.9436 6.75956 14.9436 6.87468C14.9436 7.02279 14.7937 7.10935 14.6774 7.10935H14.0055V6.64002Z" fill="#016FD0"/>
<path d="M17.5783 8.37066V7.88667H18.6219C18.7764 7.88667 18.8432 7.79749 18.8432 7.69967C18.8432 7.60596 18.7766 7.51121 18.6219 7.51121H18.1503C17.7404 7.51121 17.5121 7.24428 17.5121 6.84352C17.5121 6.48607 17.7212 6.14136 18.3303 6.14136H19.3458L19.1263 6.64295H18.248C18.0801 6.64295 18.0284 6.73711 18.0284 6.82702C18.0284 6.91943 18.0923 7.02135 18.2205 7.02135H18.7146C19.1715 7.02135 19.3698 7.29838 19.3698 7.66117C19.3698 8.05121 19.1489 8.37066 18.6897 8.37066H17.5783Z" fill="#016FD0"/>
<path d="M19.4365 8.37066V7.88667H20.4801C20.6345 7.88667 20.7014 7.79749 20.7014 7.69967C20.7014 7.60596 20.6347 7.51121 20.4801 7.51121H20.0085C19.5985 7.51121 19.3702 7.24428 19.3702 6.84352C19.3702 6.48607 19.5793 6.14136 20.1885 6.14136H21.204L20.9844 6.64295H20.1061C19.9383 6.64295 19.8866 6.73711 19.8866 6.82702C19.8866 6.91943 19.9504 7.02135 20.0787 7.02135H20.5727C21.0297 7.02135 21.228 7.29838 21.228 7.66117C21.228 8.05121 21.007 8.37066 20.5478 8.37066H19.4365Z" fill="#016FD0"/>
</svg>
