<svg width="37" height="23" viewBox="0 0 37 23" fill="none" xmlns="http://www.w3.org/2000/svg">
<path d="M34.8448 22.9111H1.85278C0.844697 22.9111 0.0198975 22.0863 0.0198975 21.0782V1.83289C0.0198975 0.824799 0.844697 0 1.85278 0H34.8448C35.8528 0 36.6776 0.824799 36.6776 1.83289V21.0782C36.6776 22.0863 35.8528 22.9111 34.8448 22.9111Z" fill="white"/>
<path d="M19.6981 17.8366C22.9864 17.8524 25.9877 15.1549 25.9877 11.8734C25.9877 8.28485 22.9864 5.80441 19.6981 5.8056H16.8682C13.5406 5.80441 10.8016 8.28559 10.8016 11.8734C10.8016 15.1556 13.5406 17.8524 16.8682 17.8366H19.6981Z" fill="#0079BE"/>
<path d="M16.882 6.3028C13.8413 6.30375 11.3773 8.76844 11.3766 11.8104C11.3773 14.8517 13.8413 17.3162 16.882 17.3171C19.9234 17.3162 22.3879 14.8517 22.3883 11.8104C22.3878 8.76844 19.9234 6.30375 16.882 6.3028ZM13.3923 11.8104C13.3951 10.3239 14.3235 9.05635 15.6326 8.55264V15.0673C14.3235 14.5639 13.3951 13.297 13.3923 11.8104ZM18.1309 15.0687V8.55243C19.4405 9.05491 20.3703 10.3232 20.3726 11.8104C20.3703 13.298 19.4405 14.5653 18.1309 15.0687Z" fill="white"/>
<path d="M19.6981 17.8366C22.9864 17.8524 25.9877 15.1549 25.9877 11.8734C25.9877 8.28485 22.9864 5.80441 19.6981 5.8056H16.8682C13.5406 5.80441 10.8016 8.28559 10.8016 11.8734C10.8016 15.1556 13.5406 17.8524 16.8682 17.8366H19.6981Z" fill="#0079BE"/>
<path d="M16.882 6.3028C13.8413 6.30375 11.3773 8.76844 11.3766 11.8104C11.3773 14.8517 13.8413 17.3162 16.882 17.3171C19.9234 17.3162 22.3879 14.8517 22.3883 11.8104C22.3878 8.76844 19.9234 6.30375 16.882 6.3028ZM13.3923 11.8104C13.3951 10.3239 14.3235 9.05635 15.6326 8.55264V15.0673C14.3235 14.5639 13.3951 13.297 13.3923 11.8104ZM18.1309 15.0687V8.55243C19.4405 9.05491 20.3703 10.3232 20.3726 11.8104C20.3703 13.298 19.4405 14.5653 18.1309 15.0687Z" fill="white"/>
</svg>
