<svg width="38" height="24" viewBox="0 0 38 24" fill="none" xmlns="http://www.w3.org/2000/svg">
<path d="M36.0831 23.2221H2.64329C1.62152 23.2221 0.785522 22.3861 0.785522 21.3643V1.85777C0.785522 0.835996 1.62152 0 2.64329 0H36.0831C37.1049 0 37.9409 0.835996 37.9409 1.85777V21.3643C37.9409 22.3861 37.1049 23.2221 36.0831 23.2221Z" fill="white"/>
<path d="M21.9748 16.4674H16.7551V7.09027H21.9748V16.4674Z" fill="#FF5F00"/>
<path d="M17.0738 11.768C17.0738 9.87133 17.9462 8.16434 19.3498 7.06427C18.3256 6.26768 17.0358 5.77454 15.6702 5.77454C12.37 5.81248 9.71472 8.4678 9.71472 11.768C9.71472 15.0682 12.37 17.7235 15.6702 17.7235C17.0738 17.7235 18.3256 17.2304 19.3498 16.4338C17.9842 15.3717 17.0738 13.6647 17.0738 11.768Z" fill="#EB001B"/>
<path d="M28.9999 11.768C28.9999 15.0682 26.3446 17.7235 23.0444 17.7235C21.6409 17.7235 20.3891 17.2304 19.3649 16.4338C20.7684 15.3337 21.6409 13.6647 21.6409 11.7301C21.6409 9.79547 20.7305 8.16434 19.3649 7.06427C20.3891 6.26768 21.6409 5.81248 23.0444 5.81248C26.3446 5.81248 28.9999 8.4678 28.9999 11.768Z" fill="#F79E1B"/>
</svg>
