<svg width="37" height="24" viewBox="0 0 37 24" fill="none" xmlns="http://www.w3.org/2000/svg">
<path d="M34.9018 23.2221H2.05909C1.05556 23.2221 0.234497 22.3861 0.234497 21.3643V1.85777C0.234497 0.835996 1.05556 0 2.05909 0H34.9018C35.9053 0 36.7264 0.835996 36.7264 1.85777V21.3643C36.7264 22.3861 35.9053 23.2221 34.9018 23.2221Z" fill="white"/>
<path d="M10.9631 9.01016C10.6803 8.68505 10.1786 8.54572 9.53995 8.54572H7.66974C7.54202 8.54572 7.42342 8.64789 7.40518 8.77794L6.6206 13.8032C6.60236 13.9054 6.68446 13.989 6.77569 13.989H7.93431L8.22624 12.1126L8.21712 12.1684C8.23537 12.0383 8.34484 11.9361 8.48169 11.9361H9.02907C10.1056 11.9361 10.954 11.4903 11.2003 10.1991C11.2095 10.162 11.2095 10.1248 11.2186 10.0877C11.1912 10.0691 11.1912 10.0691 11.2186 10.0877C11.2916 9.63251 11.2186 9.3074 10.9631 9.01016Z" fill="#003087"/>
<path d="M22.8869 11.3881H22.2666C22.2027 11.3881 22.148 11.416 22.1206 11.4717L21.263 12.7536L20.8981 11.5181C20.8799 11.4438 20.8069 11.3881 20.7248 11.3881H20.1135C20.0406 11.3881 19.9858 11.4624 20.0132 11.5367L20.6974 13.5803L20.0497 14.5092C19.9949 14.5835 20.0497 14.6856 20.1409 14.6856H20.7613C20.816 14.6856 20.8707 14.6578 20.9072 14.6113L22.969 11.5739C23.0238 11.4903 22.9782 11.3881 22.8869 11.3881ZM18.736 12.6142C18.6721 12.9765 18.3984 13.218 18.0426 13.218C17.8602 13.218 17.7233 13.1623 17.6321 13.0508C17.5409 12.9393 17.5044 12.7814 17.5317 12.6049C17.5865 12.252 17.8693 12.0012 18.2251 12.0012C18.3984 12.0012 18.5444 12.0569 18.6356 12.1684C18.7268 12.2798 18.7633 12.4377 18.736 12.6142ZM19.5935 11.3881H18.9732C18.9184 11.3881 18.8728 11.4253 18.8637 11.481L18.8363 11.6575L18.7907 11.5925C18.6539 11.3974 18.3619 11.3324 18.0609 11.3324C17.3766 11.3324 16.7928 11.8618 16.6833 12.5957C16.6286 12.9672 16.7107 13.3202 16.9114 13.5617C17.103 13.7846 17.3675 13.8775 17.6868 13.8775C18.2342 13.8775 18.5444 13.5152 18.5444 13.5152L18.517 13.6917C18.5079 13.7568 18.5535 13.8218 18.6265 13.8218H19.183C19.2742 13.8218 19.3472 13.7568 19.3563 13.6639L19.6939 11.5089C19.7121 11.4438 19.6574 11.3881 19.5935 11.3881ZM15.8896 11.4067C15.8166 11.8804 15.4608 11.8804 15.1233 11.8804H14.9226L15.0594 10.998C15.0685 10.9422 15.1141 10.9051 15.1689 10.9051H15.2601C15.4973 10.9051 15.7163 10.9051 15.8257 11.0444C15.8896 11.1187 15.9078 11.2395 15.8896 11.4067ZM15.7345 10.1713H14.4482C14.3569 10.1713 14.284 10.2363 14.2748 10.3292L13.7548 13.701C13.7457 13.766 13.7913 13.8311 13.8643 13.8311H14.4847C14.5759 13.8311 14.6489 13.766 14.658 13.6732L14.7948 12.7629C14.804 12.67 14.8861 12.6049 14.9682 12.6049H15.3787C16.2271 12.6049 16.7198 12.1869 16.8475 11.3602C16.9022 10.998 16.8475 10.71 16.6833 10.515C16.4917 10.292 16.1724 10.1713 15.7345 10.1713Z" fill="#002F86"/>
<path d="M29.5283 10.2642L28.9992 13.6918C28.9901 13.7568 29.0357 13.8219 29.1087 13.8219H29.6378C29.729 13.8219 29.802 13.7568 29.8112 13.6639L30.3312 10.2921C30.3403 10.2271 30.2947 10.162 30.2217 10.162H29.6287C29.5831 10.1713 29.5375 10.2085 29.5283 10.2642ZM27.9409 12.6143C27.8771 12.9766 27.6034 13.2181 27.2476 13.2181C27.0651 13.2181 26.9283 13.1623 26.8371 13.0509C26.7458 12.9394 26.7093 12.7815 26.7367 12.605C26.7914 12.252 27.0742 12.0012 27.43 12.0012C27.6034 12.0012 27.7494 12.057 27.8406 12.1684C27.9318 12.2799 27.9683 12.4378 27.9409 12.6143ZM28.7985 11.3882H28.1781C28.1234 11.3882 28.0778 11.4253 28.0687 11.4811L28.0413 11.6576L27.9957 11.5925C27.8588 11.3975 27.5669 11.3324 27.2658 11.3324C26.5816 11.3324 25.9977 11.8619 25.8883 12.5957C25.8335 12.9673 25.9156 13.3203 26.1163 13.5618C26.3079 13.7847 26.5725 13.8776 26.8918 13.8776C27.4392 13.8776 27.7494 13.5153 27.7494 13.5153L27.722 13.6918C27.7129 13.7568 27.7585 13.8219 27.8315 13.8219H28.388C28.4792 13.8219 28.5522 13.7568 28.5613 13.6639L28.8989 11.5089C28.9171 11.4439 28.8715 11.3882 28.7985 11.3882ZM25.0946 11.4068C25.0216 11.8805 24.6658 11.8805 24.3282 11.8805H24.1366L24.2735 10.998C24.2826 10.9423 24.3282 10.9052 24.383 10.9052H24.4742C24.7114 10.9052 24.9303 10.9052 25.0398 11.0445C25.0946 11.1188 25.1219 11.2396 25.0946 11.4068ZM24.9395 10.1713H23.6531C23.5619 10.1713 23.4889 10.2364 23.4798 10.3292L22.9598 13.7011C22.9507 13.7661 22.9963 13.8311 23.0693 13.8311H23.7352C23.7991 13.8311 23.8538 13.7847 23.863 13.7197L24.0089 12.7629C24.018 12.67 24.1001 12.605 24.1823 12.605H24.5928C25.4412 12.605 25.9339 12.187 26.0616 11.3603C26.1163 10.998 26.0616 10.7101 25.8974 10.515C25.6967 10.2921 25.3774 10.1713 24.9395 10.1713Z" fill="#009CDE"/>
<path d="M10.9631 9.01016C10.6803 8.68505 10.1786 8.54572 9.53995 8.54572H7.66974C7.54202 8.54572 7.42342 8.64789 7.40518 8.77794L6.6206 13.8032C6.60236 13.9054 6.68446 13.989 6.77569 13.989H7.93431L8.22624 12.1126L8.21712 12.1684C8.23537 12.0383 8.34484 11.9361 8.48169 11.9361H9.02907C10.1056 11.9361 10.954 11.4903 11.2003 10.1991C11.2095 10.162 11.2095 10.1248 11.2186 10.0877C11.1912 10.0691 11.1912 10.0691 11.2186 10.0877C11.2916 9.63251 11.2186 9.3074 10.9631 9.01016Z" fill="#003087"/>
<path d="M8.53643 10.1062C8.54555 10.0226 8.60029 9.95762 8.66415 9.92975C8.69152 9.91117 8.72801 9.91117 8.7645 9.91117H10.2333C10.4066 9.91117 10.5708 9.92046 10.7168 9.94833C10.7624 9.95762 10.7989 9.96691 10.8445 9.9762C10.881 9.98549 10.9266 9.99477 10.9631 10.0041C10.9814 10.0134 10.9996 10.0134 11.0179 10.0226C11.0909 10.0505 11.1547 10.0784 11.2186 10.1062C11.2916 9.63251 11.2186 9.3074 10.9631 9.01016C10.6803 8.68505 10.1786 8.54572 9.53995 8.54572H7.66974C7.54202 8.54572 7.42342 8.64789 7.40518 8.77794L6.6206 13.8032C6.60236 13.9054 6.68446 13.989 6.77569 13.989H7.93431L8.22624 12.1126L8.53643 10.1062Z" fill="#002F86"/>
<path d="M11.2186 10.1064C11.2094 10.1435 11.2094 10.1807 11.2003 10.2179C10.954 11.509 10.1056 11.9549 9.02905 11.9549H8.48167C8.35395 11.9549 8.23535 12.057 8.21711 12.1871L7.93429 13.9984L7.85219 14.5093C7.84306 14.5929 7.90693 14.6765 7.98903 14.6765H8.96519C9.08379 14.6765 9.17502 14.5929 9.19326 14.4721L9.20239 14.4257L9.38485 13.246L9.39397 13.181C9.41221 13.0695 9.51257 12.9766 9.62204 12.9766H9.76801C10.7077 12.9766 11.4466 12.5865 11.6656 11.4626C11.7568 10.9888 11.7112 10.5987 11.474 10.32C11.4101 10.2271 11.3189 10.1621 11.2186 10.1064Z" fill="#009CDE"/>
<path d="M10.9541 10.004C10.9176 9.99467 10.8811 9.98538 10.8355 9.97609C10.799 9.96681 10.7533 9.95752 10.7077 9.94823C10.5618 9.92036 10.3976 9.91107 10.2242 9.91107H8.76454C8.72805 9.91107 8.69156 9.92036 8.66419 9.93894C8.60033 9.97609 8.54559 10.0411 8.53647 10.1154L8.22629 12.1311L8.21716 12.1868C8.23541 12.0568 8.34488 11.9546 8.48173 11.9546H9.02911C10.1056 11.9546 10.9541 11.5088 11.2004 10.2176C11.2095 10.1804 11.2095 10.1433 11.2186 10.1061C11.1548 10.069 11.0909 10.0411 11.0179 10.0225C10.9905 10.0132 10.9723 10.004 10.9541 10.004Z" fill="#012069"/>
</svg>
