<svg width="37" height="23" viewBox="0 0 37 23" fill="none" xmlns="http://www.w3.org/2000/svg">
<path d="M34.6673 22.8074H1.82459C0.821067 22.8074 0 21.9864 0 20.9828V1.82459C0 0.821067 0.821067 0 1.82459 0H34.6673C35.6708 0 36.4919 0.821067 36.4919 1.82459V20.9828C36.4919 21.9864 35.6708 22.8074 34.6673 22.8074Z" fill="white"/>
<path d="M17.9267 10.1722C17.9176 11.1118 18.766 11.641 19.4137 11.9603C20.0706 12.2796 20.2986 12.4894 20.2895 12.7722C20.2804 13.2101 19.7604 13.4017 19.2769 13.4108C18.4284 13.42 17.9267 13.1828 17.5344 13.0003L17.2242 14.4326C17.6165 14.6151 18.3463 14.7702 19.1127 14.7793C20.8916 14.7793 22.0594 13.9035 22.0685 12.535C22.0776 10.8017 19.6783 10.7104 19.6965 9.93499C19.7057 9.69779 19.9246 9.45147 20.4172 9.38761C20.6636 9.35112 21.3295 9.33287 22.0868 9.67954L22.3878 8.29285C21.9773 8.14688 21.4573 8.00092 20.8004 8.00092C19.1127 8.01004 17.9358 8.90409 17.9267 10.1722ZM25.2342 8.12864C24.9058 8.12864 24.6321 8.32022 24.5135 8.61215L21.9682 14.6881H23.7471L24.1029 13.7119H26.2742L26.484 14.6881H28.0532L26.6847 8.13776H25.2342V8.12864ZM25.4896 9.89849L26.0005 12.3617H24.5956L25.4896 9.89849ZM15.7645 8.12864L14.3596 14.6789H16.0565L17.4614 8.12864H15.7645ZM13.2557 8.12864L11.495 12.5898L10.7834 8.79461C10.7013 8.37496 10.3729 8.12864 9.99882 8.12864H7.11596L7.07947 8.32022C7.67246 8.44794 8.34756 8.65777 8.74897 8.87672C8.99529 9.01357 9.06828 9.13216 9.15038 9.45147L10.5006 14.6789H12.2887L15.0347 8.12864H13.2557Z" fill="#00579F"/>
</svg>
